<svg version="1.1" viewBox="0 0 640 400" xmlns="http://www.w3.org/2000/svg" xmlns:xlink="http://www.w3.org/1999/xlink" xmlns:svgjs="http://svgjs.dev/svgjs" matcher="0.07231847259763535"><g id="tight-bounds" transform="matrix(1,0,0,1,242.53004348623853,129.69974)"><svg viewBox="0 0 154.93991302752295 140.60052000000002" height="140.60052000000002" width="154.93991302752295"><g><svg viewBox="0 0 154.93991302752295 140.60052000000002" height="140.60052000000002" width="154.93991302752295"><g><svg viewBox="0 0 154.93991302752295 140.60052000000002" height="140.60052000000002" width="154.93991302752295"><g><path d="M0 140.601v-140.601h154.94v140.601z" fill="#000" stroke="transparent" stroke-width="0" rx="0%" data-fill-palette-color="tertiary"></path><path d="M3.283 137.317v-134.034h148.374v134.034z" fill="#fff" stroke="transparent" stroke-width="0" rx="0%" data-fill-palette-color="quaternary"></path><path d="M9.85 130.751v-120.901h135.24v120.901z" fill="#000" stroke="transparent" stroke-width="0" data-fill-palette-color="tertiary"></path></g><g transform="matrix(1,0,0,1,19.69974,19.69974)" id="textblocktransform"><svg viewBox="0 0 115.54043302752297 101.20104000000002" height="101.20104000000002" width="115.54043302752297" id="textblock"><g><svg viewBox="0 0 115.54043302752297 101.20104000000002" height="101.20104000000002" width="115.54043302752297"><g transform="matrix(1,0,0,1,0,0)"><svg width="115.54043302752297" viewBox="0.05000000447034836 -41 56 49.04999923706055" height="101.20104000000002" data-palette-color="#fff"><path d="M7.8-24.05L7.8-24.05Q4.25-24.05 4.25-17.45L4.25-17.45 4.25-17.1Q4.25-16.45 3.95-16.45L3.95-16.45Q3.2-16.45 2.83-18.25 2.45-20.05 2.45-21.3L2.45-21.3Q2.45-23.35 3.38-24.95 4.3-26.55 6.25-26.55L6.25-26.55Q10.1-26.55 13.65-22.05L13.65-22.05Q16.65-25.55 20.08-29.13 23.5-32.7 25.4-34.5L25.4-34.5 27.3-36.35Q30.4-41 32.4-41L32.4-41Q32.9-41 32.9-40.55L32.9-40.55Q32.9-40.25 32.7-39.85L32.7-39.85Q28.3-31.2 24.65-20.35L24.65-20.35Q20.05-6.55 20.05 0.8L20.05 0.8Q20.05 3.1 20.6 4.15L20.6 4.15Q20.8 4.4 20.8 4.65L20.8 4.65Q20.8 5 20.2 5L20.2 5Q18.85 5 17.95 4.33 17.05 3.65 16.68 2.55 16.3 1.45 16.15 0.58 16-0.3 16-1.2L16-1.2Q16-2.7 16.55-5.65 17.1-8.6 17.1-9.95L17.1-9.95Q17.1-11.95 16.23-14.68 15.35-17.4 13.9-19.65L13.9-19.65Q12.3-17.45 10.98-15.25 9.65-13.05 9.1-12L9.1-12 8.6-10.9Q6.8-7.2 5.05-4.15 3.3-1.1 2.45 0.1L2.45 0.1 1.6 1.25Q1.05 1.9 0.6 1.9L0.6 1.9Q0.05 1.9 0.05 0.75L0.05 0.75Q0.2-6.3 12.85-21.1L12.85-21.1Q10.4-24.05 7.8-24.05ZM25.5-32.1L24.95-31.9Q19.45-27.1 14.65-20.65L14.65-20.65Q16.75-17.45 17.9-13.35L17.9-13.35Q18.05-12.9 18.15-12.9L18.15-12.9 18.4-13.35Q19.65-17.6 21.43-22.18 23.2-26.75 24.35-29.2L24.35-29.2 25.5-31.6Q25.65-31.9 25.65-32 25.65-32.1 25.5-32.1L25.5-32.1ZM43.2-20.7L43.2-20.7 35.45-20.7Q32.6-15.3 28.85-7.35L28.85-7.35Q28.7-6.9 28.37-6.13 28.05-5.35 26.97-3.23 25.9-1.1 24.72 0.75 23.55 2.6 21.8 4.63 20.05 6.65 18.25 7.75L18.25 7.75Q17.8 8.05 17.45 8.05L17.45 8.05Q16.95 8.05 16.95 7.4L16.95 7.4Q16.95 7 17.1 6.4 17.25 5.8 17.4 5.4L17.4 5.4 17.55 5.05Q19.95-0.85 31.25-20.65L31.25-20.65 29.15-20.65Q28.4-20.65 28.4-21.1L28.4-21.1Q28.4-21.45 28.77-21.78 29.15-22.1 29.55-22.1L29.55-22.1 32.1-22.1 37.05-30.55Q38.25-32.75 38.25-34.35L38.25-34.35Q38.25-35.15 37.95-35.68 37.65-36.2 37.4-36.35L37.4-36.35 37.1-36.5Q36.65-36.75 36.65-37.05L36.65-37.05Q36.65-37.3 36.92-37.48 37.2-37.65 37.4-37.65L37.4-37.65Q42.45-37.95 47.9-37.95L47.9-37.95Q52.45-37.95 55.25-37.7L55.25-37.7Q56.05-37.7 56.05-37.05L56.05-37.05Q56.05-36.8 55.9-36.5L55.9-36.5Q54.15-32.4 52.55-30L52.55-30Q52.4-29.75 51.95-29.75L51.95-29.75Q51.55-29.75 51.55-30.35L51.55-30.35Q51.9-31.4 51.9-32.65L51.9-32.65Q51.9-36.55 47.9-36.55L47.9-36.55Q45.1-36.55 44.05-35.15L44.05-35.15Q41.4-31.8 36.2-22.1L36.2-22.1Q37.55-22.1 40.17-22.13 42.8-22.15 44.05-22.15L44.05-22.15Q44.45-22.15 44.55-22.05L44.55-22.05Q44.6-22 44.6-21.9L44.6-21.9Q44.6-21.55 44.17-21.15 43.75-20.75 43.2-20.7Z" opacity="1" transform="matrix(1,0,0,1,0,0)" fill="#fff" class="wordmark-text-0" data-fill-palette-color="quaternary" id="text-0"></path></svg></g></svg></g></svg></g></svg></g></svg></g><defs></defs></svg><rect width="154.93991302752295" height="140.60052000000002" fill="none" stroke="none" visibility="hidden"></rect></g></svg>