    <svg
      width="585"
      className="hero__name"
      viewBox="0 0 585 151"
      fill="none"
      xmlns="http://www.w3.org/2000/svg"
    >
      <path
        className="path"
        d="M148.15 25.25C148.45 25.45 148.6 25.75 148.6 26.15C148.6 26.45 148.3 26.9 147.7 27.5C144.4 31.1 141.45 35.25 138.85 39.95C136.25 44.55 134.05 49.6 132.25 55.1C130.45 60.6 129.05 66.4 128.05 72.5C127.05 78.6 126.55 84.85 126.55 91.25C126.55 96.05 127.1 99.8 128.2 102.5C129.4 105.1 131.45 106.4 134.35 106.4C138.35 106.4 142.15 103.6 145.75 98C146.05 97.8 146.35 97.8 146.65 98C146.95 98.2 147.05 98.5 146.95 98.9C144.35 103.1 141.45 106.5 138.25 109.1C135.15 111.7 132.25 113 129.55 113C125.55 113 122.5 111.45 120.4 108.35C118.4 105.25 117.4 100.85 117.4 95.15C117.4 87.15 118.3 79 120.1 70.7C115.4 70.7 110.75 70.75 106.15 70.85C101.65 70.95 97.25 71.1 92.95 71.3C89.65 74.8 86.45 78.1 83.35 81.2C80.35 84.3 77.4 87.15 74.5 89.75C66.5 97.05 58.25 102.75 49.75 106.85C41.35 110.95 32.1 113 22 113C16.6 113 12.25 111.8 8.94999 109.4C5.74999 107 3.59999 103.95 2.49999 100.25C1.49999 96.55 1.54999 92.5 2.64999 88.1C3.74999 83.7 5.94999 79.45 9.24999 75.35C9.54999 75.15 9.89999 75.2 10.3 75.5C10.7 75.7 10.85 76.15 10.75 76.85C8.44999 79.35 7.14999 82.25 6.84999 85.55C6.64999 88.75 7.34999 91.8 8.94999 94.7C10.65 97.5 13.25 99.9 16.75 101.9C20.25 103.8 24.65 104.75 29.95 104.75C38.45 104.75 46.4 103 53.8 99.5C61.3 96 68.35 91.25 74.95 85.25C77.25 83.25 79.55 81.1 81.85 78.8C84.15 76.5 86.55 74.1 89.05 71.6C85.55 71.8 82.25 72.05 79.15 72.35C76.05 72.55 73.15 72.85 70.45 73.25C69.95 73.15 69.85 72.9 70.15 72.5C70.45 72.1 70.9 71.7 71.5 71.3C72.1 70.8 72.8 70.4 73.6 70.1C74.5 69.7 75.35 69.45 76.15 69.35C77.45 69.25 79.45 69.2 82.15 69.2C84.95 69.1 88.1 69 91.6 68.9C97.2 63.1 103.4 56.85 110.2 50.15C117.1 43.35 125.25 36.25 134.65 28.85C127.95 26.65 121 24.85 113.8 23.45C106.7 21.95 99.85 21.2 93.25 21.2C85.75 21.2 79.6 23.3 74.8 27.5C70 31.6 67.05 38.1 65.95 47C65.75 47.5 65.45 47.7 65.05 47.6C64.75 47.5 64.55 47.2 64.45 46.7C65.65 36.9 69.3 29.4 75.4 24.2C81.5 19 89.4 16.4 99.1 16.4C103.2 16.4 107.5 16.7 112 17.3C116.5 17.8 120.9 18.5 125.2 19.4C129.6 20.2 133.75 21.15 137.65 22.25C141.65 23.25 145.15 24.25 148.15 25.25ZM120.55 68.75C122.15 61.55 124.4 54.55 127.3 47.75C130.2 40.95 133.75 34.7 137.95 29C129.15 36.1 121.3 43 114.4 49.7C107.5 56.4 101.15 62.8 95.35 68.9C100.15 68.8 104.85 68.75 109.45 68.75C114.15 68.75 117.85 68.75 120.55 68.75Z"
        stroke="#fff"
        strokeWidth="1"
        mask="url(#path-1-outside-1_2_5)"
      />
      <path
        className="path"
        d="M215.897 1.54999C217.397 1.54999 218.597 1.94999 219.497 2.74999C220.497 3.44999 221.147 4.44999 221.447 5.74999C221.847 6.94999 221.897 8.34999 221.597 9.94999C221.397 11.55 220.847 13.15 219.947 14.75C219.747 14.95 219.497 14.95 219.197 14.75C218.897 14.55 218.697 14.3 218.597 14C218.797 12.8 218.347 11.8 217.247 11C216.247 10.2 214.647 9.79999 212.447 9.79999C208.347 9.79999 204.197 11.35 199.997 14.45C195.897 17.45 191.897 21.45 187.997 26.45C184.097 31.45 180.447 37.2 177.047 43.7C173.647 50.2 170.697 56.9 168.197 63.8C165.697 70.7 163.697 77.55 162.197 84.35C160.797 91.15 160.097 97.35 160.097 102.95C160.097 105.95 160.947 107.45 162.647 107.45C163.847 107.45 164.997 106.95 166.097 105.95C167.297 104.95 168.647 103.45 170.147 101.45C170.447 101.25 170.697 101.3 170.897 101.6C171.197 101.8 171.297 102.1 171.197 102.5C169.197 105.5 166.847 108 164.147 110C161.447 112 158.997 113 156.797 113C154.897 113 153.547 112.45 152.747 111.35C152.047 110.25 151.697 108.85 151.697 107.15C151.697 102.45 152.697 96.6 154.697 89.6C156.697 82.5 159.347 75.05 162.647 67.25C166.047 59.35 169.947 51.5 174.347 43.7C178.747 35.9 183.297 28.9 187.997 22.7C192.797 16.4 197.597 11.3 202.397 7.39998C207.197 3.49999 211.697 1.54999 215.897 1.54999Z"
        stroke="#fff"
        strokeWidth="1"
        mask="url(#path-1-outside-1_2_5)"
      />
      <path
        className="path"
        d="M192.106 68.15C191.806 68.45 191.456 68.45 191.056 68.15C190.756 67.85 190.506 67.45 190.306 66.95C190.106 66.35 190.006 65.75 190.006 65.15C190.006 64.45 190.156 63.85 190.456 63.35C191.556 61.95 193.156 60.2 195.256 58.1C197.456 55.9 199.706 54.05 202.006 52.55C202.306 52.45 202.606 52.55 202.906 52.85C203.206 53.05 203.256 53.25 203.056 53.45C200.956 55.35 198.956 57.65 197.056 60.35C195.156 62.95 193.506 65.55 192.106 68.15ZM182.056 80.75C179.956 81.85 178.006 83.15 176.206 84.65C175.906 84.85 175.656 84.8 175.456 84.5C175.256 84.2 175.206 83.9 175.306 83.6C175.906 83 176.756 82.3 177.856 81.5C179.056 80.7 180.356 79.9 181.756 79.1C183.256 78.2 184.756 77.4 186.256 76.7C187.756 75.9 189.156 75.2 190.456 74.6C191.456 74.6 191.856 75.05 191.656 75.95C188.156 89.85 184.156 101.5 179.656 110.9C175.156 120.3 170.356 127.85 165.256 133.55C160.156 139.35 154.906 143.45 149.506 145.85C144.106 148.35 138.706 149.6 133.306 149.6C129.806 149.6 127.356 148.2 125.956 145.4C124.556 142.7 124.406 139.2 125.506 134.9C125.706 134.6 125.956 134.45 126.256 134.45C126.556 134.45 126.756 134.65 126.856 135.05C126.356 137.95 127.306 140.3 129.706 142.1C132.006 144 135.556 144.95 140.356 144.95C144.356 144.95 148.156 144.1 151.756 142.4C155.356 140.7 158.856 137.5 162.256 132.8C165.656 128.1 168.956 121.55 172.156 113.15C175.456 104.85 178.756 94.05 182.056 80.75Z"
        stroke="#fff"
        strokeWidth="1"
        mask="url(#path-1-outside-1_2_5)"
      />
      <path
        className="path"
        d="M238.354 103.55C238.554 103.35 238.804 103.35 239.104 103.55C239.404 103.75 239.504 104.05 239.404 104.45C237.604 107.05 235.604 109.15 233.404 110.75C231.204 112.25 229.104 113 227.104 113C224.804 113 223.304 111.4 222.604 108.2C222.004 104.9 222.354 101 223.654 96.5C220.954 100.8 218.004 104.5 214.804 107.6C211.704 110.6 208.404 112.4 204.904 113C202.504 113 200.654 111.9 199.354 109.7C198.054 107.5 197.404 104.95 197.404 102.05C197.404 98.75 198.204 95.5 199.804 92.3C201.404 89 203.504 86.05 206.104 83.45C208.804 80.85 211.754 78.75 214.954 77.15C218.254 75.45 221.554 74.6 224.854 74.6C228.354 74.6 231.104 75.45 233.104 77.15C234.104 76.45 235.354 75.85 236.854 75.35C238.454 74.85 239.854 74.6 241.054 74.6C241.454 74.6 241.654 74.85 241.654 75.35C239.354 78.15 237.354 81.25 235.654 84.65C234.054 87.95 232.804 91.15 231.904 94.25C231.004 97.25 230.454 99.95 230.254 102.35C230.054 104.75 230.254 106.4 230.854 107.3C231.354 107.9 232.204 108.1 233.404 107.9C234.604 107.6 236.254 106.15 238.354 103.55ZM209.554 107.45C210.754 107.45 212.204 106.7 213.904 105.2C215.704 103.7 217.554 101.7 219.454 99.2C221.354 96.7 223.204 93.9 225.004 90.8C226.904 87.7 228.554 84.55 229.954 81.35C229.554 80.05 228.604 79 227.104 78.2C225.704 77.4 224.054 77 222.154 77C219.854 77 217.704 77.6 215.704 78.8C213.704 79.9 211.954 81.5 210.454 83.6C209.054 85.6 207.904 88.05 207.004 90.95C206.204 93.75 205.804 96.85 205.804 100.25C205.804 102.45 206.154 104.2 206.854 105.5C207.654 106.8 208.554 107.45 209.554 107.45Z"
        stroke="#fff"
        strokeWidth="1"
        mask="url(#path-1-outside-1_2_5)"
      />
      <path
        className="path"
        d="M251.276 102.95C253.576 103.75 255.926 104.45 258.326 105.05C260.826 105.55 263.276 105.8 265.676 105.8C268.176 105.8 270.126 105.2 271.526 104C273.026 102.8 274.176 101.15 274.976 99.05C275.276 98.75 275.576 98.7 275.876 98.9C276.276 99.1 276.426 99.4 276.326 99.8C273.026 108.6 268.176 113 261.776 113C259.676 113 257.526 112.75 255.326 112.25C253.226 111.75 251.076 111.1 248.876 110.3C247.576 109.9 246.426 109.9 245.426 110.3C244.426 110.6 243.126 111.5 241.526 113C241.026 113 240.676 112.75 240.476 112.25C240.176 111.75 240.126 111.25 240.326 110.75C242.526 108.55 244.876 106.25 247.376 103.85C249.876 101.35 252.376 98.9 254.876 96.5C257.376 94.1 259.826 91.75 262.226 89.45C264.626 87.15 266.826 85.05 268.826 83.15C266.526 82.65 263.926 82.25 261.026 81.95C258.226 81.55 255.876 81.35 253.976 81.35C251.076 81.35 249.076 82.95 247.976 86.15C247.776 86.45 247.476 86.5 247.076 86.3C246.676 86.1 246.476 85.85 246.476 85.55C247.776 81.95 249.276 79.25 250.976 77.45C252.676 75.55 255.026 74.6 258.026 74.6C260.326 74.6 262.776 74.85 265.376 75.35C268.076 75.85 270.126 76.25 271.526 76.55C272.626 76.85 273.576 76.85 274.376 76.55C275.276 76.25 276.126 75.75 276.926 75.05C277.226 74.75 277.676 74.6 278.276 74.6C279.476 74.6 279.976 75.05 279.776 75.95C274.276 81.05 269.176 85.8 264.476 90.2C259.876 94.5 255.476 98.75 251.276 102.95ZM269.576 63.8C268.976 64.4 268.376 64.35 267.776 63.65C266.576 61.95 265.076 60.45 263.276 59.15C261.576 57.85 259.776 56.75 257.876 55.85C257.376 55.35 257.626 54.75 258.626 54.05C259.726 53.35 260.926 53.1 262.226 53.3C263.926 54 265.476 54.7 266.876 55.4C268.376 56.1 269.826 56.9 271.226 57.8C273.626 56.1 276.476 54.4 279.776 52.7C280.176 52.7 280.426 52.85 280.526 53.15C280.726 53.45 280.726 53.8 280.526 54.2C278.826 55.2 276.976 56.55 274.976 58.25C272.976 59.95 271.176 61.8 269.576 63.8Z"
        stroke="#fff"
        strokeWidth="1"
        mask="url(#path-1-outside-1_2_5)"
      />
      <path
        className="path"
        d="M428.366 21.5C428.766 21.8 428.816 22.3 428.516 23C428.216 23.6 427.716 24.25 427.016 24.95C426.416 25.55 425.666 26.1 424.766 26.6C423.866 27.1 423.066 27.35 422.366 27.35C419.966 27.15 417.516 26.9 415.016 26.6C412.616 26.3 410.216 25.95 407.816 25.55C405.716 26.15 403.866 27.05 402.266 28.25C400.766 29.35 399.366 30.85 398.066 32.75C396.866 34.65 395.716 37.05 394.616 39.95C393.616 42.75 392.566 46.2 391.466 50.3C390.766 52.6 390.116 54.85 389.516 57.05C388.916 59.25 388.216 61.35 387.416 63.35H402.866C403.366 63.55 403.516 63.8 403.316 64.1C403.216 64.3 402.766 64.5 401.966 64.7C399.366 64.8 396.816 64.9 394.316 65C391.816 65 389.316 65.05 386.816 65.15C380.816 81.65 373.166 93.75 363.866 101.45C354.666 109.15 343.616 113 330.716 113C323.516 113 317.916 111.3 313.916 107.9C310.016 104.5 308.066 99.8 308.066 93.8C308.066 90.3 309.066 87.05 311.066 84.05C313.166 81.05 316.116 78.7 319.916 77C320.316 77 320.616 77.2 320.816 77.6C321.016 77.9 321.016 78.2 320.816 78.5C319.016 79.9 317.666 81.45 316.766 83.15C315.966 84.75 315.566 87 315.566 89.9C315.566 92.5 316.016 94.9 316.916 97.1C317.816 99.2 319.216 101.1 321.116 102.8C323.016 104.4 325.466 105.65 328.466 106.55C331.466 107.45 335.066 107.9 339.266 107.9C344.066 107.9 348.266 107.3 351.866 106.1C355.566 104.9 358.916 102.75 361.916 99.65C364.916 96.45 367.716 92.1 370.316 86.6C372.916 81.1 375.566 74.05 378.266 65.45C373.166 65.65 368.216 65.95 363.416 66.35C358.616 66.75 353.916 67.3 349.316 68C349.016 67.9 349.066 67.7 349.466 67.4C349.866 67 350.416 66.6 351.116 66.2C351.916 65.8 352.766 65.45 353.666 65.15C354.566 64.75 355.266 64.5 355.766 64.4C363.266 64 370.966 63.7 378.866 63.5C379.366 61.9 379.866 60.25 380.366 58.55C380.866 56.85 381.366 55.1 381.866 53.3C384.066 45.2 386.866 39 390.266 34.7C393.666 30.3 398.316 27.05 404.216 24.95C398.816 24.15 393.616 23.45 388.616 22.85C383.716 22.15 379.016 21.8 374.516 21.8C367.016 21.8 360.816 23.25 355.916 26.15C351.016 28.95 347.416 33.8 345.116 40.7C344.816 41 344.516 41.05 344.216 40.85C343.916 40.65 343.766 40.3 343.766 39.8C345.966 32.7 350.266 27 356.666 22.7C363.166 18.4 371.166 16.25 380.666 16.25C384.366 16.25 388.066 16.45 391.766 16.85C395.566 17.25 399.416 17.75 403.316 18.35C407.216 18.85 411.216 19.4 415.316 20C419.516 20.6 423.866 21.1 428.366 21.5Z"
        stroke="#fff"
        strokeWidth="1"
        mask="url(#path-1-outside-1_2_5)"
      />
      <path
        className="path"
        d="M432.796 82.1C432.796 87.8 425.246 91.7 410.146 93.8C410.046 94.8 409.946 95.8 409.846 96.8C409.846 97.8 409.846 98.85 409.846 99.95C409.846 102.55 410.446 104.55 411.646 105.95C412.846 107.35 414.746 108.05 417.346 108.05C419.246 108.05 421.196 107.5 423.196 106.4C425.196 105.3 426.796 103.9 427.996 102.2C428.396 102 428.696 102.1 428.896 102.5C429.096 102.8 429.146 103.15 429.046 103.55C427.046 106.15 424.496 108.4 421.396 110.3C418.396 112.1 415.146 113 411.646 113C408.146 113 405.596 112.15 403.996 110.45C402.496 108.65 401.746 106.15 401.746 102.95C401.746 99.85 402.396 96.65 403.696 93.35C404.996 89.95 406.646 86.85 408.646 84.05C410.746 81.25 413.096 79 415.696 77.3C418.396 75.5 421.096 74.6 423.796 74.6C426.496 74.6 428.646 75.4 430.246 77C431.946 78.5 432.796 80.2 432.796 82.1ZM419.746 78.5C417.446 78.5 415.446 79.6 413.746 81.8C412.146 83.9 411.046 87.2 410.446 91.7C415.246 91.2 418.796 90.3 421.096 89C423.396 87.6 424.546 85.9 424.546 83.9C424.546 82.4 424.096 81.15 423.196 80.15C422.296 79.05 421.146 78.5 419.746 78.5Z"
        stroke="#fff"
        strokeWidth="1"
        mask="url(#path-1-outside-1_2_5)"
      />
      <path
        className="path"
        d="M453.242 78.95C453.242 80.45 453.092 82.15 452.792 84.05C452.492 85.95 452.092 87.9 451.592 89.9C453.592 85.1 455.792 81.35 458.192 78.65C460.592 75.95 463.192 74.6 465.992 74.6C467.492 74.6 468.642 74.95 469.442 75.65C470.242 76.35 470.642 77.25 470.642 78.35C470.642 79.35 470.242 80.65 469.442 82.25C468.742 83.85 468.142 84.95 467.642 85.55C467.442 85.65 467.242 85.65 467.042 85.55C466.842 85.35 466.742 85.15 466.742 84.95C466.742 84.25 466.442 83.65 465.842 83.15C465.342 82.65 464.542 82.4 463.442 82.4C459.942 82.4 456.742 84.8 453.842 89.6C451.042 94.3 448.442 101.1 446.042 110C445.942 110.5 445.592 110.95 444.992 111.35C444.392 111.65 443.692 111.95 442.892 112.25C442.192 112.45 441.442 112.65 440.642 112.85C439.842 112.95 439.142 113 438.542 113C437.442 113 437.142 112.4 437.642 111.2C438.542 109.1 439.392 106.85 440.192 104.45C441.092 101.95 441.892 99.45 442.592 96.95C443.292 94.45 443.892 92.05 444.392 89.75C444.892 87.35 445.292 85.15 445.592 83.15C445.792 81.65 445.842 80.5 445.742 79.7C445.742 78.9 445.342 78.5 444.542 78.5C443.542 78.5 442.492 78.95 441.392 79.85C440.392 80.65 439.442 81.7 438.542 83C438.142 83.3 437.742 83.35 437.342 83.15C437.042 82.85 436.992 82.5 437.192 82.1C437.792 81.3 438.492 80.5 439.292 79.7C440.192 78.8 441.142 78 442.142 77.3C443.242 76.5 444.342 75.85 445.442 75.35C446.642 74.85 447.842 74.6 449.042 74.6C450.642 74.6 451.742 75 452.342 75.8C452.942 76.5 453.242 77.55 453.242 78.95Z"
        stroke="#fff"
        strokeWidth="1"
        mask="url(#path-1-outside-1_2_5)"
      />
      <path
        className="path"
        d="M500.179 82.1C500.179 87.8 492.629 91.7 477.529 93.8C477.429 94.8 477.329 95.8 477.229 96.8C477.229 97.8 477.229 98.85 477.229 99.95C477.229 102.55 477.829 104.55 479.029 105.95C480.229 107.35 482.129 108.05 484.729 108.05C486.629 108.05 488.579 107.5 490.579 106.4C492.579 105.3 494.179 103.9 495.379 102.2C495.779 102 496.079 102.1 496.279 102.5C496.479 102.8 496.529 103.15 496.429 103.55C494.429 106.15 491.879 108.4 488.779 110.3C485.779 112.1 482.529 113 479.029 113C475.529 113 472.979 112.15 471.379 110.45C469.879 108.65 469.129 106.15 469.129 102.95C469.129 99.85 469.779 96.65 471.079 93.35C472.379 89.95 474.029 86.85 476.029 84.05C478.129 81.25 480.479 79 483.079 77.3C485.779 75.5 488.479 74.6 491.179 74.6C493.879 74.6 496.029 75.4 497.629 77C499.329 78.5 500.179 80.2 500.179 82.1ZM487.129 78.5C484.829 78.5 482.829 79.6 481.129 81.8C479.529 83.9 478.429 87.2 477.829 91.7C482.629 91.2 486.179 90.3 488.479 89C490.779 87.6 491.929 85.9 491.929 83.9C491.929 82.4 491.479 81.15 490.579 80.15C489.679 79.05 488.529 78.5 487.129 78.5Z"
        stroke="#fff"
        strokeWidth="1"
        mask="url(#path-1-outside-1_2_5)"
      />
      <path
        className="path"
        d="M547.325 102.5C547.525 102.3 547.775 102.35 548.075 102.65C548.375 102.85 548.475 103.15 548.375 103.55C546.575 106.05 544.475 108.25 542.075 110.15C539.775 112.05 537.475 113 535.175 113C533.475 113 532.125 112.45 531.125 111.35C530.225 110.25 529.775 108.8 529.775 107C529.775 103.5 530.375 99.7 531.575 95.6C532.875 91.5 534.575 87.35 536.675 83.15C536.975 82.45 537.125 81.7 537.125 80.9C537.125 79.9 536.675 79.4 535.775 79.4C532.075 79.4 527.975 81.95 523.475 87.05C518.975 92.05 514.825 100.05 511.025 111.05C510.925 111.35 510.575 111.65 509.975 111.95C509.475 112.15 508.875 112.35 508.175 112.55C507.475 112.65 506.775 112.75 506.075 112.85C505.375 112.95 504.825 113 504.425 113C503.925 113 503.525 112.9 503.225 112.7C503.025 112.5 503.025 112.15 503.225 111.65C504.925 107.35 506.625 102.65 508.325 97.55C510.125 92.35 511.675 87.15 512.975 81.95C513.275 80.95 513.325 80.25 513.125 79.85C512.925 79.35 512.575 79.1 512.075 79.1C510.975 79.1 509.925 79.6 508.925 80.6C507.925 81.5 507.025 82.5 506.225 83.6C505.925 83.8 505.625 83.75 505.325 83.45C505.125 83.15 505.075 82.85 505.175 82.55C505.675 81.85 506.325 81.05 507.125 80.15C508.025 79.25 509.025 78.4 510.125 77.6C511.225 76.7 512.375 76 513.575 75.5C514.775 74.9 515.975 74.6 517.175 74.6C518.875 74.6 519.975 75.15 520.475 76.25C521.075 77.25 521.225 78.5 520.925 80C520.425 82.2 519.875 84.3 519.275 86.3C518.775 88.2 518.125 90.35 517.325 92.75C518.525 90.55 519.975 88.4 521.675 86.3C523.475 84.1 525.425 82.15 527.525 80.45C529.725 78.65 532.075 77.25 534.575 76.25C537.075 75.15 539.725 74.6 542.525 74.6C543.725 74.6 544.625 74.9 545.225 75.5C545.925 76.1 546.275 76.8 546.275 77.6C546.275 79 545.925 80.25 545.225 81.35C543.125 85.15 541.325 89.1 539.825 93.2C538.425 97.2 537.725 100.8 537.725 104C537.725 106.6 538.575 107.9 540.275 107.9C541.375 107.9 542.475 107.45 543.575 106.55C544.675 105.65 545.925 104.3 547.325 102.5Z"
        stroke="#fff"
        strokeWidth="1"
        mask="url(#path-1-outside-1_2_5)"
      />
      <path
        className="path"
        d="M578.264 88.1C577.664 88.3 577.364 88.05 577.364 87.35C578.064 85.25 577.914 83.4 576.914 81.8C576.014 80.2 574.314 79.4 571.814 79.4C568.614 79.4 566.014 81.4 564.014 85.4C562.114 89.4 561.164 94.6 561.164 101C561.164 105.7 563.014 108.05 566.714 108.05C568.414 108.05 570.264 107.45 572.264 106.25C574.364 104.95 576.264 103.3 577.964 101.3C578.364 101.1 578.714 101.15 579.014 101.45C579.314 101.75 579.364 102.1 579.164 102.5C576.664 105.7 573.864 108.25 570.764 110.15C567.664 112.05 564.364 113 560.864 113C558.664 113 556.814 112.25 555.314 110.75C553.814 109.15 553.064 106.95 553.064 104.15C553.064 100.65 553.764 97.15 555.164 93.65C556.664 90.05 558.564 86.85 560.864 84.05C563.164 81.25 565.664 79 568.364 77.3C571.064 75.5 573.714 74.6 576.314 74.6C578.614 74.6 580.414 75.25 581.714 76.55C583.014 77.85 583.664 79.3 583.664 80.9C583.664 81.5 583.464 82.15 583.064 82.85C582.764 83.55 582.314 84.25 581.714 84.95C581.214 85.65 580.614 86.3 579.914 86.9C579.314 87.5 578.764 87.9 578.264 88.1Z"
        stroke="#fff"
        strokeWidth="1"
        mask="url(#path-1-outside-1_2_5)"
      />
    </svg>