{
  "accessors": [
    {
      "bufferView": 1,
      "componentType": 5126,
      "count": 16384,
      "max": [
        0.9915234446525574,
        1.0050032138824463,
        1.0155476331710815
      ],
      "min": [
        -1.0074831247329712,
        -1.0045983791351318,
        -1.0070710182189941
      ],
      "type": "VEC3"
    },
    {
      "bufferView": 1,
      "byteOffset": 196608,
      "componentType": 5126,
      "count": 16384,
      "max": [
        0.9999584555625916,
        0.9999285936355591,
        0.9439780116081238
      ],
      "min": [
        -0.9999578595161438,
        -0.9999143481254578,
        -0.9448890686035156
      ],
      "type": "VEC3"
    },
    {
      "bufferView": 0,
      "componentType": 5125,
      "count": 97536,
      "type": "SCALAR"
    }
  ],
  "asset": {
    "extras": {
      "author": "Pixion (https://sketchfab.com/pixion)",
      "license": "CC-BY-4.0 (http://creativecommons.org/licenses/by/4.0/)",
      "source": "https://sketchfab.com/3d-models/loxodrome-variant-ornament-b6f15b12cb974aeca06d8b017c0bb793",
      "title": "Loxodrome Variant  Ornament"
    },
    "generator": "Sketchfab-13.68.0",
    "version": "2.0"
  },
  "bufferViews": [
    {
      "buffer": 0,
      "byteLength": 390144,
      "name": "floatBufferViews",
      "target": 34963
    },
    {
      "buffer": 0,
      "byteLength": 393216,
      "byteOffset": 390144,
      "byteStride": 12,
      "name": "floatBufferViews",
      "target": 34962
    }
  ],
  "buffers": [
    {
      "byteLength": 783360,
      "uri": "scene.bin"
    }
  ],
  "materials": [
    {
      "doubleSided": true,
      "name": "orange",
      "pbrMetallicRoughness": {
        "baseColorFactor": [
          0.8,
          0.219713,
          0.0304164,
          1.0
        ],
        "metallicFactor": 0.0,
        "roughnessFactor": 0.9048405946206273
      }
    }
  ],
  "meshes": [
    {
      "name": "LoxoDrome_orange_0",
      "primitives": [
        {
          "attributes": {
            "NORMAL": 1,
            "POSITION": 0
          },
          "indices": 2,
          "material": 0,
          "mode": 4
        }
      ]
    }
  ],
  "nodes": [
    {
      "children": [
        1
      ],
      "matrix": [
        1.0,
        0.0,
        0.0,
        0.0,
        0.0,
        2.220446049250313e-16,
        -1.0,
        0.0,
        0.0,
        1.0,
        2.220446049250313e-16,
        0.0,
        0.0,
        0.0,
        0.0,
        1.0
      ],
      "name": "Sketchfab_model"
    },
    {
      "children": [
        2
      ],
      "matrix": [
        0.009999999776482582,
        0.0,
        0.0,
        0.0,
        0.0,
        0.0,
        0.009999999776482582,
        0.0,
        0.0,
        -0.009999999776482582,
        0.0,
        0.0,
        0.0,
        0.0,
        0.0,
        1.0
      ],
      "name": "223168d83674494f8246635380f458c6.fbx"
    },
    {
      "children": [
        3
      ],
      "name": "RootNode"
    },
    {
      "children": [
        4
      ],
      "matrix": [
        100.0,
        0.0,
        0.0,
        0.0,
        0.0,
        -1.629206793918314e-05,
        -99.99999999999868,
        0.0,
        0.0,
        99.99999999999868,
        -1.629206793918314e-05,
        0.0,
        0.0,
        0.0,
        0.0,
        1.0
      ],
      "name": "LoxoDrome"
    },
    {
      "mesh": 0,
      "name": "LoxoDrome_orange_0"
    }
  ],
  "scene": 0,
  "scenes": [
    {
      "name": "Sketchfab_Scene",
      "nodes": [
        0
      ]
    }
  ]
}
